<svg xmlns="http://www.w3.org/2000/svg" xmlns:xlink="http://www.w3.org/1999/xlink" style="display:none">
    <!-- React Icon -->
    <symbol id="react" viewBox="0 0 569 512">
        <g fill="none" fill-rule="evenodd">
            <g transform="translate(-227, -256)" fill="#58C4DC" fill-rule="nonzero">
                <g transform="translate(227, 256)">
                    <path d="M285.5,201 C255.400481,201 231,225.400481 231,255.5 C231,285.599519 255.400481,310 285.5,310 C315.599519,310 340,285.599519 340,255.5 C340,225.400481 315.599519,201 285.5,201" id="Path"></path>
                    <path d="M568.959856,255.99437 C568.959856,213.207656 529.337802,175.68144 466.251623,150.985214 C467.094645,145.423543 467.85738,139.922107 468.399323,134.521063 C474.621631,73.0415145 459.808523,28.6686204 426.709856,9.5541429 C389.677085,-11.8291748 337.36955,3.69129898 284.479928,46.0162134 C231.590306,3.69129898 179.282771,-11.8291748 142.25,9.5541429 C109.151333,28.6686204 94.3382249,73.0415145 100.560533,134.521063 C101.102476,139.922107 101.845139,145.443621 102.708233,151.02537 C97.4493791,153.033193 92.2908847,155.161486 87.3331099,157.39017 C31.0111824,182.708821 0,217.765415 0,255.99437 C0,298.781084 39.6220545,336.307301 102.708233,361.003527 C101.845139,366.565197 101.102476,372.066633 100.560533,377.467678 C94.3382249,438.947226 109.151333,483.32012 142.25,502.434597 C153.629683,508.887578 166.52439,512.186771 179.603923,511.991836 C210.956328,511.991836 247.567589,495.487529 284.479928,465.972527 C321.372196,495.487529 358.003528,511.991836 389.396077,511.991836 C402.475265,512.183856 415.36922,508.884856 426.75,502.434597 C459.848667,483.32012 474.661775,438.947226 468.439467,377.467678 C467.897524,372.066633 467.134789,366.565197 466.291767,361.003527 C529.377946,336.347457 569,298.761006 569,255.99437 M389.155214,27.1025182 C397.565154,26.899606 405.877839,28.9368502 413.241569,33.0055186 C436.223966,46.2772304 446.540955,82.2775015 441.522965,131.770345 C441.181741,135.143488 440.780302,138.556788 440.298575,141.990165 C414.066922,134.08804 387.205771,128.452154 360.010724,125.144528 C343.525021,103.224055 325.192524,82.7564475 305.214266,63.9661533 C336.586743,39.7116483 366.032313,27.1025182 389.135142,27.1025182 M378.356498,310.205598 C368.204912,327.830733 357.150626,344.919965 345.237759,361.405091 C325.045049,363.479997 304.758818,364.51205 284.459856,364.497299 C264.167589,364.51136 243.888075,363.479308 223.702025,361.405091 C211.820914,344.919381 200.80007,327.83006 190.683646,310.205598 C180.532593,292.629285 171.306974,274.534187 163.044553,255.99437 C171.306974,237.454554 180.532593,219.359455 190.683646,201.783142 C200.784121,184.229367 211.770999,167.201087 223.601665,150.764353 C243.824636,148.63809 264.145559,147.579168 284.479928,147.591877 C304.772146,147.579725 325.051559,148.611772 345.237759,150.68404 C357.109048,167.14607 368.136094,184.201112 378.27621,201.783142 C388.419418,219.363718 397.644825,237.458403 405.915303,255.99437 C397.644825,274.530337 388.419418,292.625022 378.27621,310.205598 M419.724813,290.127366 C426.09516,307.503536 431.324985,325.277083 435.380944,343.334682 C417.779633,348.823635 399.836793,353.149774 381.668372,356.285142 C388.573127,345.871232 395.263781,335.035679 401.740334,323.778483 C408.143291,312.655143 414.144807,301.431411 419.805101,290.207679 M246.363271,390.377981 C258.848032,391.140954 271.593728,391.582675 284.5,391.582675 C297.406272,391.582675 310.232256,391.140954 322.737089,390.377981 C310.880643,404.583418 298.10766,417.997563 284.5,430.534446 C270.921643,417.999548 258.18192,404.585125 246.363271,390.377981 Z M187.311556,356.244986 C169.137286,353.123646 151.187726,348.810918 133.578912,343.334682 C137.618549,325.305649 142.828222,307.559058 149.174827,290.207679 C154.754833,301.431411 160.736278,312.655143 167.239594,323.778483 C173.74291,334.901824 180.467017,345.864539 187.311556,356.285142 M149.174827,221.760984 C142.850954,204.473938 137.654787,186.794745 133.619056,168.834762 C151.18418,163.352378 169.085653,159.013101 187.211197,155.844146 C180.346585,166.224592 173.622478,176.986525 167.139234,188.210257 C160.65599,199.433989 154.734761,210.517173 149.074467,221.760984 M322.616657,121.590681 C310.131896,120.827708 297.3862,120.385987 284.379568,120.385987 C271.479987,120.385987 258.767744,120.787552 246.242839,121.590681 C258.061488,107.383537 270.801211,93.9691137 284.379568,81.4342157 C297.99241,93.9658277 310.765727,107.380324 322.616657,121.590681 Z M401.70019,188.210257 C395.196875,176.939676 388.472767,166.09743 381.527868,155.68352 C399.744224,158.819049 417.734224,163.151949 435.380944,168.654058 C431.331963,186.680673 426.122466,204.426664 419.785029,221.781062 C414.205023,210.55733 408.203506,199.333598 401.720262,188.230335 M127.517179,131.790423 C122.438973,82.3176579 132.816178,46.2973086 155.778503,33.0255968 C163.144699,28.9632474 171.455651,26.9264282 179.864858,27.1225964 C202.967687,27.1225964 232.413257,39.7317265 263.785734,63.9862316 C243.794133,82.7898734 225.448298,103.270812 208.949132,125.204763 C181.761691,128.528025 154.90355,134.14313 128.661281,141.990165 C128.199626,138.556788 127.778115,135.163566 127.456963,131.790423 M98.4529773,182.106474 C101.54406,180.767925 104.695358,179.429376 107.906872,178.090828 C114.220532,204.735668 122.781793,230.7969 133.498624,255.99437 C122.761529,281.241316 114.193296,307.357063 107.8868,334.058539 C56.7434387,313.076786 27.0971497,284.003505 27.0971497,255.99437 C27.0971497,229.450947 53.1907013,202.526037 98.4529773,182.106474 Z M155.778503,478.963143 C132.816178,465.691432 122.438973,429.671082 127.517179,380.198317 C127.838331,376.825174 128.259842,373.431953 128.721497,369.978497 C154.953686,377.878517 181.814655,383.514365 209.009348,386.824134 C225.500295,408.752719 243.832321,429.233234 263.805806,448.042665 C220.069,481.834331 180.105722,492.97775 155.838719,478.963143 M441.502893,380.198317 C446.520883,429.691161 436.203894,465.691432 413.221497,478.963143 C388.974566,493.017906 348.991216,481.834331 305.274481,448.042665 C325.241364,429.232737 343.566681,408.752215 360.050868,386.824134 C387.245915,383.516508 414.107066,377.880622 440.338719,369.978497 C440.820446,373.431953 441.221885,376.825174 441.563109,380.198317 M461.193488,334.018382 C454.869166,307.332523 446.294494,281.231049 435.561592,255.99437 C446.289797,230.744081 454.857778,204.629101 461.173416,177.930202 C512.216417,198.911955 541.942994,227.985236 541.942994,255.99437 C541.942994,284.003505 512.296705,313.076786 461.153344,334.058539" id="Shape"></path>
                </g>
            </g>
        </g>
    </symbol>
    <!-- Node Icon -->
    <symbol id="node" viewBox="0 0 256 292">
        <defs>
            <linearGradient id="a" x1="68.188%" x2="27.823%" y1="17.487%" y2="89.755%">
                <stop offset="0%" stop-color="#41873F"/>
                <stop offset="32.88%" stop-color="#418B3D"/>
                <stop offset="63.52%" stop-color="#419637"/>
                <stop offset="93.19%" stop-color="#3FA92D"/>
                <stop offset="100%" stop-color="#3FAE2A"/>
            </linearGradient>
            <linearGradient id="c" x1="43.277%" x2="159.245%" y1="55.169%" y2="-18.306%">
                <stop offset="13.76%" stop-color="#41873F"/>
                <stop offset="40.32%" stop-color="#54A044"/>
                <stop offset="71.36%" stop-color="#66B848"/>
                <stop offset="90.81%" stop-color="#6CC04A"/>
            </linearGradient>
            <linearGradient id="f" x1="-4.389%" x2="101.499%" y1="49.997%" y2="49.997%">
                <stop offset="9.192%" stop-color="#6CC04A"/>
                <stop offset="28.64%" stop-color="#66B848"/>
                <stop offset="59.68%" stop-color="#54A044"/>
                <stop offset="86.24%" stop-color="#41873F"/>
            </linearGradient>
            <path id="b" d="M134.923 1.832c-4.344-2.443-9.502-2.443-13.846 0L6.787 67.801C2.443 70.244 0 74.859 0 79.745v132.208c0 4.887 2.715 9.502 6.787 11.945l114.29 65.968c4.344 2.444 9.502 2.444 13.846 0l114.29-65.968c4.344-2.443 6.787-7.058 6.787-11.945V79.745c0-4.886-2.715-9.501-6.787-11.944L134.923 1.832Z"/>
            <path id="e" d="M134.923 1.832c-4.344-2.443-9.502-2.443-13.846 0L6.787 67.801C2.443 70.244 0 74.859 0 79.745v132.208c0 4.887 2.715 9.502 6.787 11.945l114.29 65.968c4.344 2.444 9.502 2.444 13.846 0l114.29-65.968c4.344-2.443 6.787-7.058 6.787-11.945V79.745c0-4.886-2.715-9.501-6.787-11.944L134.923 1.832Z"/>
        </defs>
        <path fill="url(#a)" d="M134.923 1.832c-4.344-2.443-9.502-2.443-13.846 0L6.787 67.801C2.443 70.244 0 74.859 0 79.745v132.208c0 4.887 2.715 9.502 6.787 11.945l114.29 65.968c4.344 2.444 9.502 2.444 13.846 0l114.29-65.968c4.344-2.443 6.787-7.058 6.787-11.945V79.745c0-4.886-2.715-9.501-6.787-11.944L134.923 1.832Z"/>
        <mask id="d" fill="#fff">
            <use xlink:href="#b"/>
        </mask>
        <path fill="url(#c)" d="M249.485 67.8 134.65 1.833c-1.086-.542-2.443-1.085-3.529-1.357L2.443 220.912c1.086 1.357 2.444 2.443 3.8 3.258l114.834 65.968c3.258 1.9 7.059 2.443 10.588 1.357L252.47 70.515c-.815-1.086-1.9-1.9-2.986-2.714Z" mask="url(#d)"/>
        <mask id="g" fill="#fff">
            <use xlink:href="#e"/>
        </mask>
        <path fill="url(#f)" d="M249.756 223.898c3.258-1.9 5.701-5.158 6.787-8.687L130.579.204c-3.258-.543-6.787-.272-9.773 1.628L6.786 67.53l122.979 224.238c1.628-.272 3.529-.815 5.158-1.63l114.833-66.239Z" mask="url(#g)"/>
    </symbol>
    <!-- TypeScript Icon -->
    <symbol id="typescript" viewBox="0 0 256 256">
        <rect width="256" height="256" rx="20" fill="#3178C6"/>
        <path d="M150.518 200.475v27.62c4.492 2.302 9.805 4.028 15.938 5.179 6.133 1.151 12.597 1.726 19.393 1.726 6.622 0 12.914-.633 18.874-1.899 5.96-1.266 11.187-3.352 15.678-6.257 4.492-2.906 8.048-6.704 10.669-11.394 2.62-4.689 3.93-10.486 3.93-17.391 0-5.006-.749-9.394-2.246-13.163a30.748 30.748 0 0 0-6.479-10.055c-2.821-2.935-6.205-5.567-10.149-7.898-3.945-2.33-8.394-4.531-13.347-6.602-3.628-1.497-6.881-2.949-9.761-4.359-2.879-1.41-5.327-2.848-7.342-4.316-2.016-1.467-3.571-3.021-4.665-4.661-1.094-1.64-1.641-3.495-1.641-5.567 0-1.899.489-3.61 1.468-5.135s2.362-2.834 4.147-3.927c1.785-1.094 3.973-1.942 6.565-2.547 2.591-.604 5.471-.906 8.638-.906 2.304 0 4.737.173 7.299.518 2.563.345 5.14.877 7.732 1.597a53.669 53.669 0 0 1 7.558 2.719 41.7 41.7 0 0 1 6.781 3.797v-25.807c-4.204-1.611-8.797-2.805-13.778-3.582-4.981-.777-10.697-1.165-17.147-1.165-6.565 0-12.784.705-18.658 2.115-5.874 1.409-11.043 3.61-15.506 6.602-4.463 2.993-7.99 6.805-10.582 11.437-2.591 4.632-3.887 10.17-3.887 16.615 0 8.228 2.375 15.248 7.127 21.06 4.751 5.811 11.963 10.731 21.638 14.759a291.458 291.458 0 0 1 10.625 4.575c3.283 1.496 6.119 3.049 8.509 4.66 2.39 1.611 4.276 3.366 5.658 5.265 1.382 1.899 2.073 4.057 2.073 6.474a9.901 9.901 0 0 1-1.296 4.963c-.863 1.524-2.174 2.848-3.93 3.97-1.756 1.122-3.945 1.999-6.565 2.632-2.62.633-5.687.95-9.2.95-5.989 0-11.92-1.05-17.794-3.151-5.875-2.1-11.317-5.25-16.327-9.451Zm-46.036-68.733H140V109H41v22.742h35.345V233h28.137V131.742Z" fill="#FFF"/>
    </symbol>
    <symbol id="html" viewBox="0 0 452 520">
        <path fill="#e34f26" d="M41 460L0 0h451l-41 460-185 52" />
        <path fill="#ef652a" d="M226 472l149-41 35-394H226" />
        <path fill="#ecedee" d="M226 208h-75l-5-58h80V94H84l15 171h127zm0 147l-64-17-4-45h-56l7 89 117 32z"/>
        <path fill="#fff" d="M226 265h69l-7 73-62 17v59l115-32 16-174H226zm0-171v56h136l5-56z"/>
    </symbol>
    <!-- CSS Icon -->
    <symbol id="css" viewBox="0 0 1000 1000">
        <path fill="#639" d="M0 0h840a160 160 0 0 1 160 160v680a160 160 0 0 1-160 160H160A160 160 0 0 1 0 840V0Z"/>
        <path fill="#fff" d="M816.54 919.9c-32.39 0-57.16-9.42-74.5-28.35-17.15-19.03-26.08-46.18-26.88-81.64h69.8c.4 31.36 11.42 47.08 33.08 47.08 11.04 0 18.86-3.5 23.37-10.42 4.41-6.9 6.72-17.93 6.72-33.05 0-12.02-3.01-22.04-8.83-29.95a73.2 73.2 0 0 0-29.48-21.14L783.95 750c-23.06-11.02-39.81-24.04-50.14-39.27-10.03-15.13-15.04-36.36-15.04-63.5 0-30.36 8.83-55 26.37-73.94 18.05-18.93 42.62-28.34 74-28.34 30.3 0 53.76 9.31 70.3 27.84 16.85 18.64 25.67 45.28 26.38 80.14h-67.19c.4-11.4-1.9-22.72-6.72-33.06-3.8-7.6-11.23-11.41-22.26-11.41-19.65 0-29.48 11.71-29.48 35.05 0 11.83 2.4 21.04 7.22 28.05A65.18 65.18 0 0 0 822.76 689l24.77 10.92c25.57 11.72 44.02 26.05 55.35 43.38 11.43 17.23 17.05 40.27 17.05 69.12 0 34.56-9.03 61.1-27.38 79.63-18.25 18.53-43.62 27.85-76 27.85Zm-225.42 0c-32.4 0-57.16-9.42-74.51-28.35-17.15-19.03-26.07-46.18-26.87-81.64h69.79c.4 31.36 11.43 47.08 33.1 47.08 11.02 0 18.84-3.5 23.25-10.42 4.52-6.9 6.72-17.93 6.72-33.05 0-12.02-2.9-22.04-8.72-29.95a73.2 73.2 0 0 0-29.48-21.14L558.53 750c-23.07-11.02-39.81-24.04-50.14-39.27-10.03-15.13-15.04-36.36-15.04-63.5 0-30.36 8.82-55 26.37-73.94 18.05-18.93 42.62-28.34 74-28.34 30.29 0 53.75 9.31 70.2 27.84 17.05 18.64 25.77 45.28 26.47 80.14h-67.18c.4-11.4-1.9-22.72-6.72-33.06-3.81-7.6-11.23-11.41-22.26-11.41-19.66 0-29.49 11.71-29.49 35.05 0 11.83 2.41 21.04 7.22 28.05A65.18 65.18 0 0 0 597.33 689l24.77 10.92c25.57 11.72 44.02 26.05 55.36 43.38 11.33 17.23 17.04 40.27 17.04 69.12 0 34.56-9.12 61.1-27.37 79.63-18.25 18.53-43.62 27.85-76.01 27.85Zm-234.75 0c-31.7 0-56.86-8.62-75.51-25.85-18.65-17.12-27.88-42.87-27.88-76.93V648.83c0-33.85 9.83-59.5 29.48-77.13 19.96-17.43 46.13-26.24 78.52-26.24 31.39 0 56.15 9.01 74.5 26.84 18.56 17.93 27.88 44.58 27.88 80.14v13.32h-73.9v-12.92c0-13.72-3.01-23.84-8.83-30.45a26.46 26.46 0 0 0-21.66-10.32c-12.03 0-20.55 4.1-25.37 12.42a79.04 79.04 0 0 0-6.72 36.66v146.26c0 30.55 10.74 46.08 32.1 46.38 10.02 0 17.54-3.61 22.76-10.82a51.74 51.74 0 0 0 7.72-30.46V801.6h73.9v11.42c0 23.74-4.61 43.57-13.94 59.4a88.8 88.8 0 0 1-38.2 35.66 121.46 121.46 0 0 1-54.85 11.82Z"/>
    </symbol>
    <!-- Instagram Icon -->
    <symbol id="instagram" viewBox="0 0 256 256">
        <path fill="#fff" d="M128 23.064c34.177 0 38.225.13 51.722.745 12.48.57 19.258 2.655 23.769 4.408 5.974 2.322 10.238 5.096 14.717 9.575 4.48 4.479 7.253 8.743 9.575 14.717 1.753 4.511 3.838 11.289 4.408 23.768.615 13.498.745 17.546.745 51.723 0 34.178-.13 38.226-.745 51.723-.57 12.48-2.655 19.257-4.408 23.768-2.322 5.974-5.096 10.239-9.575 14.718-4.479 4.479-8.743 7.253-14.717 9.574-4.511 1.753-11.289 3.839-23.769 4.408-13.495.616-17.543.746-51.722.746-34.18 0-38.228-.13-51.723-.746-12.48-.57-19.257-2.655-23.768-4.408-5.974-2.321-10.239-5.095-14.718-9.574-4.479-4.48-7.253-8.744-9.574-14.718-1.753-4.51-3.839-11.288-4.408-23.768-.616-13.497-.746-17.545-.746-51.723 0-34.177.13-38.225.746-51.722.57-12.48 2.655-19.258 4.408-23.769 2.321-5.974 5.095-10.238 9.574-14.717 4.48-4.48 8.744-7.253 14.718-9.575 4.51-1.753 11.289-3.838 23.768-4.408 13.497-.615 17.545-.745 51.723-.745M128 0C93.237 0 88.878.147 75.226.77c-13.625.622-22.93 2.786-31.071 5.95-8.418 3.271-15.556 7.648-22.672 14.764C14.367 28.6 9.991 35.738 6.72 44.155 3.555 52.297 1.392 61.602.77 75.226.147 88.878 0 93.237 0 128c0 34.763.147 39.122.77 52.774.622 13.625 2.785 22.93 5.95 31.071 3.27 8.417 7.647 15.556 14.763 22.672 7.116 7.116 14.254 11.492 22.672 14.763 8.142 3.165 17.446 5.328 31.07 5.95 13.653.623 18.012.77 52.775.77s39.122-.147 52.774-.77c13.624-.622 22.929-2.785 31.07-5.95 8.418-3.27 15.556-7.647 22.672-14.763 7.116-7.116 11.493-14.254 14.764-22.672 3.164-8.142 5.328-17.446 5.95-31.07.623-13.653.77-18.012.77-52.775s-.147-39.122-.77-52.774c-.622-13.624-2.786-22.929-5.95-31.07-3.271-8.418-7.648-15.556-14.764-22.672C227.4 14.368 220.262 9.99 211.845 6.72c-8.142-3.164-17.447-5.328-31.071-5.95C167.122.147 162.763 0 128 0Zm0 62.27C91.698 62.27 62.27 91.7 62.27 128c0 36.302 29.428 65.73 65.73 65.73 36.301 0 65.73-29.428 65.73-65.73 0-36.301-29.429-65.73-65.73-65.73Zm0 108.397c-23.564 0-42.667-19.103-42.667-42.667S104.436 85.333 128 85.333s42.667 19.103 42.667 42.667-19.103 42.667-42.667 42.667Zm83.686-110.994c0 8.484-6.876 15.36-15.36 15.36-8.483 0-15.36-6.876-15.36-15.36 0-8.483 6.877-15.36 15.36-15.36 8.484 0 15.36 6.877 15.36 15.36Z"/>
    </symbol>
    <!-- X (Twitter) Icon -->
    <symbol id="x" viewBox="0 0 1200 1227">
        <path fill="#fff" d="M714.163 519.284 1160.89 0h-105.86L667.137 450.887 357.328 0H0l468.492 681.821L0 1226.37h105.866l409.625-476.152 327.181 476.152H1200L714.137 519.284h.026ZM569.165 687.828l-47.468-67.894-377.686-540.24h162.604l304.797 435.991 47.468 67.894 396.2 566.721H892.476L569.165 687.854v-.026Z"/>
    </symbol>
    <!-- YouTube Icon -->
    <symbol id="youtube" viewBox="0 0 256 180">
        <path d="M250.346 28.075A32.18 32.18 0 0 0 227.69 5.418C207.824 0 127.87 0 127.87 0S47.912.164 28.046 5.582A32.18 32.18 0 0 0 5.39 28.24c-6.009 35.298-8.34 89.084.165 122.97a32.18 32.18 0 0 0 22.656 22.657c19.866 5.418 99.822 5.418 99.822 5.418s79.955 0 99.82-5.418a32.18 32.18 0 0 0 22.657-22.657c6.338-35.348 8.291-89.1-.164-123.134Z" fill="red"/>
        <path fill="#FFF" d="m102.421 128.06 66.328-38.418-66.328-38.418z"/>
    </symbol>
    <!-- LinkedIn Icon -->
    <symbol id="linkedin" viewBox="0 0 256 256">
        <path d="M218.123 218.127h-37.931v-59.403c0-14.165-.253-32.4-19.728-32.4-19.756 0-22.779 15.434-22.779 31.369v60.43h-37.93V95.967h36.413v16.694h.51a39.907 39.907 0 0 1 35.928-19.733c38.445 0 45.533 25.288 45.533 58.186l-.016 67.013ZM56.955 79.27c-12.157.002-22.014-9.852-22.016-22.009-.002-12.157 9.851-22.014 22.008-22.016 12.157-.003 22.014 9.851 22.016 22.008A22.013 22.013 0 0 1 56.955 79.27m18.966 138.858H37.95V95.967h37.97v122.16ZM237.033.018H18.89C8.58-.098.125 8.161-.001 18.471v219.053c.122 10.315 8.576 18.582 18.89 18.474h218.144c10.336.128 18.823-8.139 18.966-18.474V18.454c-.147-10.33-8.635-18.588-18.966-18.453" fill="#0A66C2"/>
    </symbol>
    <!-- GitHub Icon -->
    <symbol id="github" viewBox="0 0 1024 1024">
        <path fill-rule="evenodd" clip-rule="evenodd" d="M8 0C3.58 0 0 3.58 0 8C0 11.54 2.29 14.53 5.47 15.59C5.87 15.66 6.02 15.42 6.02 15.21C6.02 15.02 6.01 14.39 6.01 13.72C4 14.09 3.48 13.23 3.32 12.78C3.23 12.55 2.84 11.84 2.5 11.65C2.22 11.5 1.82 11.13 2.49 11.12C3.12 11.11 3.57 11.7 3.72 11.94C4.44 13.15 5.59 12.81 6.05 12.6C6.12 12.08 6.33 11.73 6.56 11.53C4.78 11.33 2.92 10.64 2.92 7.58C2.92 6.71 3.23 5.99 3.74 5.43C3.66 5.23 3.38 4.41 3.82 3.31C3.82 3.31 4.49 3.1 6.02 4.13C6.66 3.95 7.34 3.86 8.02 3.86C8.7 3.86 9.38 3.95 10.02 4.13C11.55 3.09 12.22 3.31 12.22 3.31C12.66 4.41 12.38 5.23 12.3 5.43C12.81 5.99 13.12 6.7 13.12 7.58C13.12 10.65 11.25 11.33 9.47 11.53C9.76 11.78 10.01 12.26 10.01 13.01C10.01 14.08 10 14.94 10 15.21C10 15.42 10.15 15.67 10.55 15.59C13.71 14.53 16 11.53 16 8C16 3.58 12.42 0 8 0Z" transform="scale(64)" fill="#fff"/>
    </symbol>
    <!-- Strava Icon -->
    <symbol id="strava" width="512" height="512" style="enable-background:new 0 0 512 512">
        <path d="M226.172 26.001 90.149 288.345h80.141l55.882-104.309 55.433 104.309h79.511z" style="fill:#f50"/>
        <path d="m361.116 288.345-39.441 79.241-40.07-79.241h-60.734l100.804 197.654 100.176-197.654z" style="fill:#ffaf8a"/>
    </symbol>
    <!-- Twitch Icon -->
    <symbol id="twitch" viewBox="0 0 2400 2800">
        <path fill="#fff" d="m2200 1300-400 400h-400l-350 350v-350H600V200h1600z"/>
        <g fill="#9146ff">
            <path d="M500 0 0 500v1800h600v500l500-500h400l900-900V0H500zm1700 1300-400 400h-400l-350 350v-350H600V200h1600v1100z"/>
            <path d="M1700 550h200v600h-200zm-550 0h200v600h-200z"/>
        </g>
    </symbol>
    <!-- Verified Icon -->
    <symbol id="verified" viewBox="0 0 20 20">
        <path fill-rule="evenodd" d="M10 18a8 8 0 100-16 8 8 0 000 16zm3.707-8.707a1 1 0 00-1.414-1.414L9 11.172l-1.293-1.293a1 1 0 00-1.414 1.414l2 2a1 1 0 001.414 0l4-4z" clip-rule="evenodd" />
    </symbol>
    <!-- Python Icon -->
    <symbol id="python"  viewBox="0 0 32 32">
        <path fill-rule="evenodd" clip-rule="evenodd" d="M13.0164 2C10.8193 2 9.03825 3.72453 9.03825 5.85185V8.51852H15.9235V9.25926H5.97814C3.78107 9.25926 2 10.9838 2 13.1111L2 18.8889C2 21.0162 3.78107 22.7407 5.97814 22.7407H8.27322V19.4815C8.27322 17.3542 10.0543 15.6296 12.2514 15.6296H19.5956C21.4547 15.6296 22.9617 14.1704 22.9617 12.3704V5.85185C22.9617 3.72453 21.1807 2 18.9836 2H13.0164ZM12.0984 6.74074C12.8589 6.74074 13.4754 6.14378 13.4754 5.40741C13.4754 4.67103 12.8589 4.07407 12.0984 4.07407C11.3378 4.07407 10.7213 4.67103 10.7213 5.40741C10.7213 6.14378 11.3378 6.74074 12.0984 6.74074Z" fill="url(#paint0_linear_87_8204)"/>
        <path fill-rule="evenodd" clip-rule="evenodd" d="M18.9834 30C21.1805 30 22.9616 28.2755 22.9616 26.1482V23.4815L16.0763 23.4815L16.0763 22.7408L26.0217 22.7408C28.2188 22.7408 29.9998 21.0162 29.9998 18.8889V13.1111C29.9998 10.9838 28.2188 9.25928 26.0217 9.25928L23.7266 9.25928V12.5185C23.7266 14.6459 21.9455 16.3704 19.7485 16.3704L12.4042 16.3704C10.5451 16.3704 9.03809 17.8296 9.03809 19.6296L9.03809 26.1482C9.03809 28.2755 10.8192 30 13.0162 30H18.9834ZM19.9015 25.2593C19.1409 25.2593 18.5244 25.8562 18.5244 26.5926C18.5244 27.329 19.1409 27.9259 19.9015 27.9259C20.662 27.9259 21.2785 27.329 21.2785 26.5926C21.2785 25.8562 20.662 25.2593 19.9015 25.2593Z" fill="url(#paint1_linear_87_8204)"/>
        <defs>
            <linearGradient id="paint0_linear_87_8204" x1="12.4809" y1="2" x2="12.4809" y2="22.7407" gradientUnits="userSpaceOnUse">
                <stop stop-color="#327EBD"/>
                <stop offset="1" stop-color="#1565A7"/>
            </linearGradient>
            <linearGradient id="paint1_linear_87_8204" x1="19.519" y1="9.25928" x2="19.519" y2="30" gradientUnits="userSpaceOnUse">
                <stop stop-color="#FFDA4B"/>
                <stop offset="1" stop-color="#F9C600"/>
            </linearGradient>
        </defs>
    </symbol>
    <!-- Android Icon -->
    <symbol id="Android" viewBox="-22.5 0 301 301">
        <g>
            <path d="M78.3890161,0.858476242 C76.9846593,0.871877584 75.5269206,1.21067383 74.1988355,1.94683705 C69.9813154,4.28464966 68.4344792,9.70448752 70.7705059,13.9187887 L80.2936432,31.1148585 C57.3501835,45.3109605 42.146676,69.5583356 42.146676,97.23264 C42.146676,97.3488107 42.1463538,97.5233203 42.146676,97.6951925 C42.1467894,97.7558421 42.1461099,97.7904107 42.146676,97.8584397 C42.1467112,97.9488816 42.146676,98.0809536 42.146676,98.1033235 L42.146676,102.37513 C37.7401995,97.3051619 31.2627337,94.103607 24.0255064,94.103607 C10.766574,94.103607 0,104.870185 0,118.129121 L0,192.137501 C0,205.396437 10.766574,216.163015 24.0255064,216.163015 C31.2627337,216.163015 37.7401995,212.96146 42.146676,207.891492 L42.146676,218.258109 C42.146676,232.234601 53.5833566,243.671281 67.5598484,243.671281 L74.0083724,243.671281 L74.0083724,276.594135 C74.0083724,289.853131 84.774955,300.619649 98.0338856,300.619649 C111.292821,300.619649 122.0594,289.853131 122.0594,276.594135 L122.0594,243.671281 L133.215081,243.671281 L133.215081,276.594135 C133.215081,289.853131 143.981659,300.619649 157.240595,300.619649 C170.499522,300.619649 181.266118,289.853131 181.266118,276.594135 L181.266118,243.671281 L187.714637,243.671281 C201.691129,243.671281 213.127809,232.234601 213.127809,218.258109 L213.127809,207.891492 C217.534299,212.96146 224.011752,216.163015 231.248984,216.163015 C244.507919,216.163015 255.274498,205.396437 255.274498,192.137501 L255.274498,118.129121 C255.274498,104.870185 244.507919,94.103607 231.248984,94.103607 C224.011752,94.103607 217.534299,97.3051619 213.127809,102.37513 L213.127809,98.1849514 L213.127809,98.1033407 C213.128367,97.9723769 213.127955,97.8421262 213.127809,97.8584655 C213.129527,97.5976548 213.127809,97.3898395 213.127809,97.2326572 C213.127809,69.5631979 197.890397,45.339215 174.95363,31.1420821 L184.503985,13.918763 C186.840011,9.70446174 185.293178,4.28462389 181.075655,1.94681128 C179.747565,1.21064805 178.289834,0.871868993 176.885477,0.85845047 C173.770979,0.828641074 170.714038,2.4700306 169.103704,5.37514094 L159.118011,23.4146964 C149.353914,19.811505 138.730068,17.8368515 127.637245,17.8368515 C116.555726,17.8368515 105.912363,19.7912913 96.1564693,23.3874813 L86.1707769,5.37514094 C84.5604527,2.47002201 81.503506,0.828709799 78.3890161,0.85845047 L78.3890161,0.858476242 Z" fill="#FFFFFF">

</path>
            <path d="M24.0260725,100.361664 C14.1317,100.361664 6.25861893,108.234747 6.25861893,118.129121 L6.25861893,192.137501 C6.25861893,202.031875 14.1317,209.904958 24.0260725,209.904958 C33.9204441,209.904958 41.7935257,202.031875 41.7935257,192.137501 L41.7935257,118.129121 C41.7935257,108.234747 33.9204441,100.361664 24.0260725,100.361664 L24.0260725,100.361664 Z M231.249551,100.361664 C221.355176,100.361664 213.482094,108.234747 213.482094,118.129121 L213.482094,192.137501 C213.482094,202.031875 221.355176,209.904958 231.249551,209.904958 C241.143925,209.904958 249.016999,202.031875 249.016999,192.137501 L249.016999,118.129121 C249.016999,108.234747 241.143925,100.361664 231.249551,100.361664 L231.249551,100.361664 Z" fill="#A4C639">

</path>
            <path d="M98.0338856,184.818075 C88.1395114,184.818075 80.2664341,192.691157 80.2664341,202.585531 L80.2664341,276.593963 C80.2664341,286.488363 88.1395114,294.361308 98.0338856,294.361308 C107.92826,294.361308 115.801342,286.488363 115.801342,276.593963 L115.801342,202.585531 C115.801342,192.691157 107.92826,184.818075 98.0338856,184.818075 L98.0338856,184.818075 Z M157.240595,184.818075 C147.346221,184.818075 139.473138,192.691157 139.473138,202.585531 L139.473138,276.593963 C139.473138,286.488363 147.346221,294.361308 157.240595,294.361308 C167.134969,294.361308 175.008043,286.488363 175.008043,276.593963 L175.008043,202.585531 C175.008043,192.691157 167.134969,184.818075 157.240595,184.818075 L157.240595,184.818075 Z" fill="#A4C639">

</path>
            <path d="M78.4434341,7.11654228 C78.0234231,7.12083758 77.6320498,7.22919946 77.2462398,7.44304537 C75.9792855,8.14533584 75.5626532,9.60121987 76.2667168,10.8713836 L88.782836,33.4820338 C64.7023936,46.0117562 48.4373365,69.8232526 48.4047377,97.1510121 L206.869751,97.1510121 C206.837193,69.8232526 190.572096,46.0117562 166.491645,33.4820338 L179.007777,10.8713836 C179.711837,9.60121987 179.295201,8.14533584 178.02825,7.44304537 C177.642438,7.22919946 177.251067,7.1205455 176.831055,7.11654228 C175.931919,7.10786577 175.079646,7.55712 174.599912,8.42257181 L161.920533,31.2781058 C151.548297,26.6773219 139.914231,24.0949434 127.637245,24.0949434 C115.360249,24.0949434 103.726174,26.6773219 93.3539479,31.2781058 L80.6745686,8.42257181 C80.1948375,7.55712 79.3425576,7.10791732 78.4434341,7.11654228 L78.4434341,7.11654228 Z M48.4047377,103.40907 L48.4047377,218.258109 C48.4047377,228.870039 56.9479173,237.413214 67.5598484,237.413214 L187.714637,237.413214 C198.326576,237.413214 206.869751,228.870039 206.869751,218.258109 L206.869751,103.40907 L48.4047377,103.40907 L48.4047377,103.40907 Z" fill="#A4C639">

</path>
            <path d="M91.0681772,54.9226953 C87.4507168,54.9226953 84.4563973,57.9170105 84.4563973,61.5344795 C84.4563973,65.1519399 87.4507168,68.146255 91.0681772,68.146255 C94.6856376,68.146255 97.6799528,65.1519399 97.6799528,61.5344795 C97.6799528,57.9170105 94.6856376,54.9226953 91.0681772,54.9226953 L91.0681772,54.9226953 Z M164.205874,54.9226953 C160.588413,54.9226953 157.59409,57.9170105 157.59409,61.5344795 C157.59409,65.1519399 160.588413,68.146255 164.205874,68.146255 C167.823326,68.146255 170.817649,65.1519399 170.817649,61.5344795 C170.817649,57.9170105 167.823326,54.9226953 164.205874,54.9226953 L164.205874,54.9226953 Z" fill="#FFFFFF">

</path>
        </g>
    </symbol>
    <symbol id="Arch" viewBox="0 0 512 512">
        <rect/>
        <path d="M256 72c-14 35-23 57-39 91 10 11 22 23 41 36-21-8-35-17-45-26-21 43-53 103-117 220 50-30 90-48 127-55-2-7-3-14-3-22v-1c1-33 18-58 38-56 20 1 36 29 35 62l-2 17c36 7 75 26 125 54l-27-50c-13-10-27-23-55-38 19 5 33 11 44 17-86-159-93-180-122-250z" fill="#1793d1"/>
    </symbol>
    <symbol id="Arduino" viewBox="0 -41 256 256" >
        <g fill="#00979C">
            <path d="M14.044,130.399 L0.919,173.242 L11.247,173.242 L13.616,165.259 L26.419,165.259 L28.724,173.242 L39.955,173.242 L26.831,130.399 L14.044,130.399 L14.044,130.399 Z M16.21,156.641 L20.109,143.316 L23.964,156.641 L16.21,156.641 L16.21,156.641 Z">

</path>
            <path d="M64.632,153.696 C64.477,153.53 64.319,153.373 64.158,153.226 C64.481,153.104 64.796,152.974 65.104,152.832 C66.354,152.258 67.449,151.489 68.359,150.552 C69.279,149.606 70.002,148.466 70.507,147.163 C71.007,145.876 71.261,144.397 71.261,142.77 C71.261,140.527 70.856,138.587 70.06,137.002 C69.255,135.399 68.09,134.079 66.599,133.078 C65.152,132.108 63.392,131.407 61.367,130.996 C59.421,130.601 57.229,130.399 54.854,130.399 L41.456,130.399 L41.456,173.242 L51.731,173.242 L51.731,156.502 L52.036,156.502 C53.16,156.502 54.097,156.749 54.9,157.259 C55.697,157.764 56.308,158.509 56.771,159.541 L62.981,173.242 L74.936,173.242 L67.391,157.959 C66.477,156.103 65.574,154.71 64.632,153.696 L64.632,153.696 Z M60.163,145.477 C59.866,146.043 59.454,146.507 58.903,146.895 C58.322,147.303 57.601,147.616 56.757,147.826 C55.866,148.049 54.849,148.161 53.733,148.161 L51.731,148.161 L51.731,139.142 L53.989,139.142 C56.341,139.142 58.089,139.511 59.184,140.24 C60.138,140.875 60.602,141.945 60.602,143.513 C60.602,144.271 60.458,144.914 60.163,145.477 L60.163,145.477 Z">

</path>
            <path d="M105.04,135.487 C103.31,133.748 101.128,132.446 98.555,131.619 C96.047,130.81 93.095,130.399 89.782,130.399 L76.193,130.399 L76.193,173.242 L88.022,173.242 C91.839,173.242 95.178,172.722 97.945,171.697 C100.755,170.658 103.102,169.15 104.919,167.216 C106.733,165.286 108.085,162.928 108.935,160.209 C109.769,157.547 110.191,154.553 110.191,151.31 C110.191,147.775 109.768,144.674 108.932,142.093 C108.078,139.449 106.769,137.227 105.04,135.487 L105.04,135.487 Z M96.639,161.524 C94.855,163.506 92.267,164.469 88.727,164.469 L86.467,164.469 L86.467,139.172 L89.27,139.172 C91.251,139.172 92.914,139.452 94.211,140.005 C95.469,140.54 96.442,141.296 97.186,142.314 C97.946,143.358 98.497,144.668 98.823,146.205 C99.166,147.831 99.341,149.715 99.341,151.805 C99.341,156.263 98.432,159.533 96.639,161.524 L96.639,161.524 Z">

</path>
            <path d="M134.942,157.654 C134.942,159.131 134.806,160.39 134.535,161.396 C134.283,162.335 133.912,163.102 133.43,163.675 C132.968,164.226 132.403,164.615 131.704,164.864 C130.943,165.136 129.97,165.273 128.81,165.273 C127.583,165.273 126.571,165.116 125.802,164.805 C125.063,164.505 124.469,164.076 123.985,163.495 C123.499,162.91 123.151,162.176 122.95,161.31 C122.726,160.354 122.613,159.229 122.613,157.963 L122.613,130.399 L112.339,130.399 L112.339,158.427 C112.339,160.743 112.626,162.869 113.19,164.745 C113.777,166.694 114.745,168.379 116.068,169.75 C117.391,171.12 119.123,172.18 121.216,172.897 C123.25,173.598 125.708,173.953 128.521,173.953 C131.036,173.953 133.344,173.598 135.378,172.897 C137.458,172.184 139.251,171.103 140.708,169.683 C142.166,168.261 143.297,166.471 144.07,164.363 C144.83,162.293 145.216,159.869 145.216,157.158 L145.216,130.399 L134.942,130.399 L134.942,157.654">

</path>
            <path d="M150.47,139.018 L159.69,139.018 L159.69,164.562 L150.47,164.562 L150.47,173.242 L179.313,173.242 L179.313,164.562 L170.093,164.562 L170.093,139.018 L179.313,139.018 L179.313,130.399 L150.47,130.399 L150.47,139.018">

</path>
            <path d="M207.905,154.811 L196.419,130.399 L184.79,130.399 L184.79,173.242 L194.359,173.242 L194.359,148.366 L205.906,173.242 L217.476,173.242 L217.476,130.399 L207.905,130.399 L207.905,154.811">

</path>
            <path d="M250.738,135.468 C247.738,131.653 243.241,129.719 237.374,129.719 C234.864,129.719 232.47,130.164 230.258,131.041 C228.015,131.93 226.033,133.314 224.366,135.158 C222.714,136.986 221.402,139.337 220.469,142.144 C219.546,144.915 219.078,148.238 219.078,152.022 C219.078,159.012 220.565,164.45 223.497,168.188 C226.497,172.014 230.994,173.953 236.861,173.953 C239.372,173.953 241.768,173.508 243.98,172.631 C246.224,171.741 248.205,170.356 249.87,168.515 C251.52,166.688 252.832,164.338 253.768,161.529 C254.689,158.759 255.157,155.436 255.157,151.65 C255.157,144.64 253.67,139.195 250.738,135.468 L250.738,135.468 Z M243.976,157.729 C243.682,159.31 243.223,160.643 242.612,161.692 C242.032,162.691 241.314,163.423 240.419,163.928 C239.527,164.431 238.416,164.686 237.118,164.686 C234.55,164.686 232.76,163.73 231.646,161.765 C230.422,159.606 229.801,156.204 229.801,151.65 C229.801,149.512 229.955,147.591 230.261,145.944 C230.555,144.366 231.017,143.035 231.637,141.986 C232.227,140.983 232.947,140.249 233.838,139.742 C234.717,139.241 235.82,138.987 237.118,138.987 C239.706,138.987 241.501,139.941 242.604,141.903 C243.819,144.063 244.435,147.468 244.435,152.022 C244.435,154.166 244.281,156.086 243.976,157.729 L243.976,157.729 Z">

</path>
            <path d="M240.315,5.74 L242.138,5.74 L242.138,10.533 L243.431,10.533 L243.431,5.74 L245.269,5.74 L245.269,4.55 L240.315,4.55 L240.315,5.74">

</path>
            <path d="M249.768,4.55 L248.521,8.628 L247.231,4.55 L245.544,4.55 L245.544,10.533 L246.76,10.533 L246.76,6.711 L247.966,10.533 L249.076,10.533 L250.22,6.81 L250.22,10.533 L251.43,10.533 L251.43,4.55 L249.768,4.55">

</path>
            <path d="M190.275,120.327 C173.987,120.327 160.061,114.835 147.805,103.602 C140.234,96.665 133.992,88.166 128.249,79.329 C122.507,88.166 116.264,96.665 108.694,103.602 C95.525,115.671 80.427,121.113 62.545,120.236 C28.444,120.088 0.747,93.176 0.747,60.118 C0.747,26.969 28.596,0 62.827,0 C81.559,0 97.33,6.199 111.037,18.95 C117.621,25.075 123.179,32.18 128.249,39.614 C133.319,32.18 138.878,25.075 145.461,18.95 C159.168,6.199 174.939,0 193.671,0 C227.903,0 255.751,26.969 255.751,60.118 C255.751,93.176 228.055,120.088 193.953,120.236 C192.714,120.297 191.487,120.327 190.275,120.327 L190.275,120.327 Z M140.72,59.316 C147.514,70.339 154.108,80.599 162.14,87.959 C171.206,96.268 180.762,99.686 193.115,99.033 L193.671,99.018 C216.202,99.018 234.533,81.568 234.533,60.118 C234.533,38.669 216.202,21.218 193.671,21.218 C180.37,21.218 169.643,25.434 159.913,34.485 C152.646,41.246 146.646,49.908 140.72,59.316 L140.72,59.316 Z M62.827,21.218 C40.296,21.218 21.965,38.669 21.965,60.118 C21.965,81.568 40.296,99.018 62.827,99.018 L63.384,99.033 C75.738,99.686 85.292,96.268 94.358,87.959 C102.39,80.599 108.985,70.339 115.778,59.316 C109.852,49.908 103.852,41.246 96.586,34.485 C86.855,25.434 76.128,21.218 62.827,21.218 L62.827,21.218 Z">

</path>
            <path d="M196.477,52.407 L196.477,40.901 L184.501,40.901 L184.501,52.407 L172.996,52.407 L172.996,64.325 L184.501,64.325 L184.501,75.916 L196.477,75.916 L196.477,64.325 L207.983,64.325 L207.983,52.407 L196.477,52.407">

</path>
            <path d="M45.599,52.263 L83.416,52.263 L83.416,64.555 L45.599,64.555 L45.599,52.263 Z">

</path>
        </g>
    </symbol>
    <symbol id="Bash" viewBox="-16 0 256 256">
    <g>
				<path d="M207.953496,52.161792 L127.317154,4.28699154 C117.73318,-1.42899718 105.786545,-1.42899718 96.2025707,4.28699154 L15.5500822,52.161792 C5.848665,58.0143618 -0.0579442252,68.5395346 0.000428679482,79.8694336 L0.000428679482,175.602888 C-0.0522462707,186.927041 5.85362572,197.444768 15.5500822,203.294383 L96.186424,251.153037 C105.771373,256.86549 117.716059,256.86549 127.301008,251.153037 L207.937349,203.294383 C217.644962,197.44581 223.55812,186.9199 223.50315,175.586741 L223.50315,79.8694336 C223.561523,68.5395346 217.654913,58.0143618 207.953496,52.161792 Z" fill="#FFFFFF">

</path>
				<path d="M208.411532,52.276683 L127.597582,4.29643402 C117.992498,-1.43214467 106.019549,-1.43214467 96.4144654,4.29643402 L15.5843327,52.276683 C5.86154721,58.1421436 -0.0580718526,68.6904991 0.000429623687,80.0453532 L0.000429623687,175.989669 C-0.0523613478,187.338765 5.86651886,197.879657 15.5843327,203.742157 L96.3982832,251.706224 C106.004343,257.431259 117.975339,257.431259 127.581399,251.706224 L208.39535,203.742157 C218.124345,197.880703 224.050527,187.331607 223.995435,175.973487 L223.995435,80.0453532 C224.053937,68.6904991 218.134318,58.1421436 208.411532,52.276683 Z M99.2301697,246.803014 L18.4162192,198.838948 C10.4300926,193.999639 5.56585934,185.327547 5.59969728,175.989669 L5.59969728,80.0453532 C5.56264048,70.7066408 10.4277023,62.033071 18.4162192,57.1960744 L99.2301697,9.21582548 C107.095348,4.52357839 116.900517,4.52357839 124.765695,9.21582548 L205.514917,57.1960744 C212.17156,61.2279088 216.712503,67.9889997 217.926671,75.6761569 C215.240424,69.9638372 209.20446,68.3941629 202.1652,72.4397151 L125.768992,119.756494 C116.237671,125.306991 109.214593,131.569506 109.19841,143.058874 L109.19841,237.271693 C109.19841,244.149132 111.965568,248.59924 116.237671,249.909999 C114.838668,250.166379 113.420175,250.301731 111.997932,250.314554 C107.503971,250.311263 103.093756,249.098314 99.2301697,246.803014 Z" fill="#2F3A3E">

</path>
				<path d="M187.007319,185.05984 L166.920894,197.072944 C166.382945,197.289147 166.022425,197.801466 166.000535,198.380822 L166.000535,203.660774 C166.000535,204.30664 166.436494,204.564987 166.969334,204.2582 L187.362545,191.857577 C187.861962,191.483188 188.100868,190.854486 187.976118,190.242913 L187.976118,185.608826 C187.959971,185.0114 187.491719,184.753054 187.007319,185.05984 Z" fill="#3AB14A">

</path>
				<path d="M144.262952,140.831868 C144.908817,140.508935 145.441657,140.831868 145.457803,141.752226 L145.52239,148.75987 C147.937868,147.662506 150.63266,147.335523 153.240486,147.823365 C153.741032,147.952538 153.950938,148.630697 153.757179,149.438029 L152.223247,155.5899 C152.106964,156.054178 151.867023,156.478259 151.528942,156.817045 C151.410206,156.934194 151.274035,157.032237 151.125276,157.107685 C150.94275,157.206405 150.732219,157.240546 150.52785,157.204565 C147.984993,156.641458 145.323113,157.068744 143.084247,158.399417 C139.810579,159.87411 137.670697,163.093345 137.578241,166.682645 C137.578241,169.911974 139.192905,170.800039 144.828084,170.896919 C152.271687,171.026092 155.501016,174.271568 155.581749,181.779758 C155.404525,189.616874 151.790949,196.979831 145.700003,201.914623 L145.829176,208.793094 C145.817697,209.647405 145.37394,210.437656 144.650471,210.892157 L140.581517,213.233421 C139.935651,213.556354 139.402812,213.233421 139.386665,212.329209 L139.386665,205.563765 C135.89899,207.016963 132.362875,207.356042 130.102345,206.45183 C129.682532,206.290364 129.488772,205.660645 129.666385,204.934046 L131.13573,198.717587 C131.24746,198.225629 131.499922,197.776809 131.862329,197.425856 C131.977267,197.315759 132.107853,197.223261 132.249848,197.151363 C132.460373,197.056728 132.701336,197.056728 132.911861,197.151363 C135.790274,197.931772 138.860474,197.542919 141.453436,196.069538 C145.195213,194.264929 147.626918,190.533412 147.766774,186.381551 C147.766774,182.893876 145.845323,181.440678 141.308116,181.408385 C135.446884,181.408385 130.005465,180.27812 129.892438,171.720398 C130.027305,164.244122 133.498017,157.21978 139.354372,152.570478 L139.063732,145.530541 C139.061125,144.663931 139.507025,143.857647 140.242437,143.399184 L144.262952,140.831868 Z" fill="#FFFFFF">

</path>
    </g>
</symbol>
<symbol id="Kotlin" viewBox="0 0 256 256">
    <defs>
        <linearGradient x1="26.599%" y1="146.559136%" x2="73.8446667%" y2="52.3813953%" id="linearGradient-1">
            <stop stop-color="#0095D5" offset="9.677%">

</stop>
            <stop stop-color="#238AD9" offset="30.07%">

</stop>
            <stop stop-color="#557BDE" offset="62.11%">

</stop>
            <stop stop-color="#7472E2" offset="86.43%">

</stop>
            <stop stop-color="#806EE3" offset="100%">

</stop>
        </linearGradient>
        <linearGradient x1="13.9840532%" y1="37.1049231%" x2="68.682392%" y2="-13.5538462%" id="linearGradient-2">
            <stop stop-color="#0095D5" offset="11.83%">

</stop>
            <stop stop-color="#3C83DC" offset="41.78%">

</stop>
            <stop stop-color="#6D74E1" offset="69.62%">

</stop>
            <stop stop-color="#806EE3" offset="83.33%">

</stop>
        </linearGradient>
        <linearGradient x1="-16.8361667%" y1="91.9396667%" x2="76.2191667%" y2="-1.11566667%" id="linearGradient-3">
            <stop stop-color="#C757BC" offset="10.75%">

</stop>
            <stop stop-color="#D0609A" offset="21.38%">

</stop>
            <stop stop-color="#E1725C" offset="42.54%">

</stop>
            <stop stop-color="#EE7E2F" offset="60.48%">

</stop>
            <stop stop-color="#F58613" offset="74.3%">

</stop>
            <stop stop-color="#F88909" offset="82.32%">

</stop>
        </linearGradient>
    </defs>
    <g>
				<polygon fill="url(#linearGradient-1)" points="0 256 128.426667 127.573333 256 256">

</polygon>
				<polygon fill="url(#linearGradient-2)" points="0 0 128.426667 0 0 138.666667">

</polygon>
				<polygon fill="url(#linearGradient-3)" points="128.426667 0 0 135.253333 0 256 128.426667 127.573333 256 0">

</polygon>
    </g>
</symbol>
<symbol id="Laravel" viewBox="-4 0 264 264">
    <g>
        <path d="M255.855641,59.619717 C255.950565,59.9710596 256,60.3333149 256,60.6972536 L256,117.265345 C256,118.743206 255.209409,120.108149 253.927418,120.843385 L206.448786,148.178786 L206.448786,202.359798 C206.448786,203.834322 205.665123,205.195421 204.386515,205.937838 L105.27893,262.990563 C105.05208,263.119455 104.804608,263.201946 104.557135,263.289593 C104.464333,263.320527 104.376687,263.377239 104.278729,263.403017 C103.585929,263.58546 102.857701,263.58546 102.164901,263.403017 C102.051476,263.372083 101.948363,263.310215 101.840093,263.26897 C101.613244,263.186479 101.376082,263.1143 101.159544,262.990563 L2.07258227,205.937838 C0.7913718,205.201819 0,203.837372 0,202.359798 L0,32.6555248 C0,32.2843161 0.0515567729,31.9234187 0.144358964,31.5728326 C0.175293028,31.454252 0.24747251,31.3459828 0.288717928,31.2274022 C0.366053087,31.0108638 0.438232569,30.7891697 0.55165747,30.5880982 C0.628992629,30.4540506 0.742417529,30.3457814 0.83521972,30.2220451 C0.953800298,30.0570635 1.06206952,29.8869261 1.20127281,29.7425672 C1.31985339,29.6239866 1.4745237,29.5363401 1.60857131,29.4332265 C1.75808595,29.3094903 1.89213356,29.1754427 2.06227091,29.0774848 L2.06742659,29.0774848 L51.6134853,0.551122364 C52.8901903,-0.183535768 54.4613221,-0.183535768 55.7380271,0.551122364 L105.284086,29.0774848 L105.294397,29.0774848 C105.459379,29.1805983 105.598582,29.3094903 105.748097,29.4280708 C105.882144,29.5311844 106.031659,29.6239866 106.15024,29.7374115 C106.294599,29.8869261 106.397712,30.0570635 106.521448,30.2220451 C106.609095,30.3457814 106.727676,30.4540506 106.799855,30.5880982 C106.918436,30.7943253 106.985459,31.0108638 107.06795,31.2274022 C107.109196,31.3459828 107.181375,31.454252 107.212309,31.5779883 C107.307234,31.9293308 107.355765,32.2915861 107.356668,32.6555248 L107.356668,138.651094 L148.643332,114.878266 L148.643332,60.6920979 C148.643332,60.3312005 148.694889,59.9651474 148.787691,59.619717 C148.823781,59.4959808 148.890804,59.3877116 148.93205,59.269131 C149.014541,59.0525925 149.08672,58.8308984 149.200145,58.629827 C149.27748,58.4957794 149.390905,58.3875102 149.478552,58.2637739 C149.602288,58.0987922 149.705401,57.9286549 149.84976,57.7842959 C149.968341,57.6657153 150.117856,57.5780688 150.251903,57.4749553 C150.406573,57.351219 150.540621,57.2171714 150.705603,57.1192136 L150.710758,57.1192136 L200.261973,28.5928511 C201.538395,27.8571345 203.110093,27.8571345 204.386515,28.5928511 L253.932573,57.1192136 C254.107866,57.2223271 254.241914,57.351219 254.396584,57.4697996 C254.525476,57.5729132 254.674991,57.6657153 254.793572,57.7791402 C254.93793,57.9286549 255.041044,58.0987922 255.16478,58.2637739 C255.257582,58.3875102 255.371007,58.4957794 255.443187,58.629827 C255.561767,58.8308984 255.628791,59.0525925 255.711282,59.269131 C255.757683,59.3877116 255.824707,59.4959808 255.855641,59.619717 Z M247.740605,114.878266 L247.740605,67.8378666 L230.402062,77.8192579 L206.448786,91.6106946 L206.448786,138.651094 L247.745761,114.878266 L247.740605,114.878266 Z M198.194546,199.97272 L198.194546,152.901386 L174.633101,166.357704 L107.351512,204.757188 L107.351512,252.27191 L198.194546,199.97272 Z M8.25939501,39.7961379 L8.25939501,199.97272 L99.0921175,252.266755 L99.0921175,204.762344 L51.6392637,177.906421 L51.6237967,177.89611 L51.603174,177.885798 C51.443348,177.792996 51.3093004,177.658949 51.1597857,177.545524 C51.0308938,177.44241 50.8813791,177.359919 50.7679542,177.246494 L50.7576429,177.231027 C50.6235953,177.102135 50.5307931,176.942309 50.4173682,176.79795 C50.3142546,176.658747 50.1905184,176.540167 50.1080276,176.395808 L50.1028719,176.380341 C50.0100697,176.22567 49.9533572,176.040066 49.8863334,175.864773 C49.8193096,175.710103 49.7316631,175.565744 49.6904177,175.400762 L49.6904177,175.395606 C49.6388609,175.19969 49.6285496,174.993463 49.6079269,174.792392 C49.5873041,174.637722 49.5460587,174.483051 49.5460587,174.328381 L49.5460587,174.31807 L49.5460587,63.5689658 L25.5979377,49.7723734 L8.25939501,39.8012935 L8.25939501,39.7961379 Z M53.6809119,8.89300821 L12.3994039,32.6555248 L53.6706006,56.4180414 L94.9469529,32.6503692 L53.6706006,8.89300821 L53.6809119,8.89300821 Z M75.1491521,157.19091 L99.0972731,143.404629 L99.0972731,39.7961379 L81.7587304,49.7775291 L57.8054537,63.5689658 L57.8054537,167.177457 L75.1491521,157.19091 Z M202.324244,36.934737 L161.047891,60.6972536 L202.324244,84.4597702 L243.59544,60.6920979 L202.324244,36.934737 Z M198.194546,91.6106946 L174.24127,77.8192579 L156.902727,67.8378666 L156.902727,114.878266 L180.850848,128.664547 L198.194546,138.651094 L198.194546,91.6106946 Z M103.216659,197.616575 L163.759778,163.052915 L194.023603,145.781396 L152.778185,122.034346 L105.289242,149.374903 L62.0073307,174.292291 L103.216659,197.616575 Z" fill="#FF2D20">

</path>
    </g>
</symbol>
<symbol id="Node-red" fill="#8A0000" viewBox="0 0 32 32">
  <path d="M4 0c-2.213 0-4 1.787-4 4v8.14h3.812c1.453 0 2.625 1.163 2.615 2.615v0.032c1.084-0.131 1.751-0.475 2.235-0.912 0.552-0.511 0.923-1.213 1.355-2s0.948-1.661 1.88-2.296c0.765-0.527 1.801-0.86 3.177-0.917v-0.599c0-1.459 1.172-2.636 2.629-2.636h10.521c1.459 0 2.636 1.177 2.636 2.636v2.588c0 1.453-1.177 2.709-2.636 2.709h-10.521c-1.457 0-2.629-1.256-2.629-2.709v-0.604c-1.141 0.047-1.88 0.313-2.396 0.672-0.641 0.437-1.037 1.068-1.448 1.823-0.417 0.756-0.844 1.631-1.631 2.355l-0.104 0.088c4.093 0.552 5.953 2.073 7.536 3.459 1.849 1.62 3.297 3.031 8.396 3.052v-0.615c0-1.459 1.193-2.593 2.652-2.593h3.921v-14.287c0-2.213-1.787-4-4-4zM17.703 7.213c-0.495 0-0.916 0.36-0.916 0.849v2.588c0 0.489 0.421 0.849 0.916 0.849h10.521c0.473 0.016 0.864-0.375 0.849-0.849v-2.588c0.015-0.475-0.376-0.865-0.849-0.849zM0 13.932v4.355h3.812c0.5-0.011 0.896-0.423 0.901-0.923v-2.588c0-0.489-0.411-0.844-0.901-0.844zM6.427 16.156v1.208c0.011 1.453-1.167 2.636-2.615 2.636h-3.812v8c0 2.213 1.787 4 4 4h24c2.213 0 4-1.787 4-4v-1.86h-3.921c-1.459 0-2.652-1.213-2.652-2.671v-0.595c-5.391-0.041-7.463-1.776-9.307-3.391-1.917-1.677-3.667-3.239-9.693-3.328zM28.079 20c-0.485 0-0.876 0.396-0.865 0.88v2.589c0 0.489 0.371 0.817 0.865 0.817h3.921v-4.287z"/>
</symbol>
<symbol id="Tailwind" viewBox="0 -51 256 256">
    <defs>
        <linearGradient x1="-2.77777778%" y1="32%" x2="100%" y2="67.5555556%" id="linearGradient-1">
            <stop stop-color="#2298BD" offset="0%">

</stop>
            <stop stop-color="#0ED7B5" offset="100%">

</stop>
        </linearGradient>
    </defs>
    <g>
        <path d="M128,-1.0658141e-14 C93.8666667,-1.0658141e-14 72.5333333,17.0666667 64,51.2 C76.8,34.1333333 91.7333333,27.7333333 108.8,32 C118.537481,34.4343704 125.497363,41.4985481 133.201067,49.3184 C145.750756,62.0567704 160.275437,76.8 192,76.8 C226.133333,76.8 247.466667,59.7333333 256,25.6 C243.2,42.6666667 228.266667,49.0666667 211.2,44.8 C201.462519,42.3656296 194.502637,35.3014519 186.798933,27.4816 C174.249244,14.7432296 159.724563,-1.0658141e-14 128,-1.0658141e-14 Z M64,76.8 C29.8666667,76.8 8.53333333,93.8666667 0,128 C12.8,110.933333 27.7333333,104.533333 44.8,108.8 C54.5374815,111.23437 61.497363,118.298548 69.2010667,126.1184 C81.7507556,138.85677 96.275437,153.6 128,153.6 C162.133333,153.6 183.466667,136.533333 192,102.4 C179.2,119.466667 164.266667,125.866667 147.2,121.6 C137.462519,119.16563 130.502637,112.101452 122.798933,104.2816 C110.249244,91.5432296 95.724563,76.8 64,76.8 Z" fill="url(#linearGradient-1)">

</path>
    </g>
</symbol>
</svg>